<?xml version="1.0" encoding="utf-8"?>
<!-- Generator: Adobe Illustrator 26.0.2, SVG Export Plug-In . SVG Version: 6.00 Build 0)  -->
<svg version="1.1" id="Layer_1" xmlns="http://www.w3.org/2000/svg" xmlns:xlink="http://www.w3.org/1999/xlink" x="0px" y="0px"
	 viewBox="0 0 512 512" style="enable-background:new 0 0 512 512;" xml:space="preserve">
<style type="text/css">
	.st0{fill:#444444;}
	.st1{fill:#006DA8;}
	.st2{fill:url(#SVGID_1_);}
</style>
<g>
	<path class="st0" d="M195.3,218.5h10.9l16.1,52.8l17-52.8h9.7l16.1,52.8l16.9-52.8h10.6l-21.6,64.8h-11.4L244,235.2l-16.3,48.2
		l-11.4,0.1L195.3,218.5z"/>
	<path class="st0" d="M360.5,218.5v64.8h-9l-1.4-10.4c-5.4,7.5-12.8,11.2-22.2,11.2c-6,0-11.4-1.3-16.1-3.9
		c-4.7-2.6-8.3-6.4-11.1-11.4c-2.6-5-3.9-10.9-3.9-17.8c0-6.5,1.3-12.3,3.9-17.3c2.7-5,6.4-8.9,11.2-11.7c4.7-2.8,10.1-4.2,16-4.2
		c5.2,0,9.6,1,13.3,2.9c3.7,1.9,6.7,4.6,8.9,8l1.4-10.2H360.5z M328.9,274.8c4.2,0,7.8-1,11.1-2.9c3.3-2,5.8-4.8,7.6-8.4
		c1.8-3.6,2.7-7.8,2.7-12.3c0-4.7-0.9-8.8-2.7-12.5c-1.8-3.7-4.3-6.6-7.6-8.6c-3.2-2-6.9-3.1-11.1-3.1c-6.4,0-11.7,2.2-15.6,6.7
		c-3.9,4.4-5.8,10.1-5.8,17.2c0,7,1.9,12.8,5.8,17.3C317.2,272.6,322.4,274.8,328.9,274.8z"/>
	<path class="st0" d="M407.6,218.5v10.2h-5.2c-6.2,0-10.6,2.1-13.3,6.2c-2.6,4.2-3.9,9.3-3.9,15.4v33.1h-10.4v-64.8h9l1.4,9.8
		c1.9-3,4.3-5.3,7.2-7.1s7.1-2.7,12.3-2.7H407.6z"/>
	<path class="st0" d="M449.9,217.7c6,0,11.4,1.3,16,3.9c4.7,2.6,8.4,6.4,11.1,11.4c2.7,5,4.1,10.9,4.1,17.8c0,6.5-1.4,12.3-4.1,17.3
		c-2.6,5-6.3,8.9-11.1,11.7s-10.1,4.2-16,4.2c-5.3,0-9.7-0.9-13.5-2.8c-3.7-1.9-6.7-4.6-8.8-7.9v35.3h-10.4v-90.3h9l1.4,10.4
		C433,221.5,440.4,217.7,449.9,217.7z M448.8,274.8c6.4,0,11.6-2.2,15.5-6.6c4-4.5,6-10.3,6-17.3c0-7-2-12.8-6-17.2
		c-3.9-4.5-9.1-6.7-15.5-6.7c-4.2,0-7.9,1-11.2,3.1c-3.2,1.9-5.7,4.7-7.5,8.4c-1.8,3.6-2.7,7.6-2.7,12.2c0,4.7,0.9,8.9,2.7,12.6
		c1.8,3.6,4.3,6.5,7.5,8.5C441,273.8,444.7,274.8,448.8,274.8z"/>
	<path class="st1" d="M97.7,306.7H46.1c-8.4,0-15.1-6.8-15.1-15.1v-58.7c0-8.4,6.8-15.1,15.1-15.1h73.8L97.7,306.7z"/>
	
		<linearGradient id="SVGID_1_" gradientUnits="userSpaceOnUse" x1="100.4731" y1="245.019" x2="173.5568" y2="304.5461" gradientTransform="matrix(1 0 0 -1 0 514)">
		<stop  offset="0" style="stop-color:#01A4FF"/>
		<stop  offset="0.7917" style="stop-color:#01FFC2"/>
	</linearGradient>
	<path class="st2" d="M98.1,203.2h51.6c8.4,0,15.1,6.8,15.1,15.1v58.7c0,8.4-6.8,15.1-15.1,15.1H75.9L98.1,203.2z"/>
</g>
</svg>
